# xmcd CD database file
#
# Track frame offsets:
#	150
#	10818
#	30887
#	69375
#	105235
#	128419
#	164877
#
# Disc length: 2670 seconds
#
# Revision: 0
# Processed by: cddbd v1.5.1PL0 Copyright (c) Steve Scherf et al.
# Submitted via: CDex 1.51
#
DISCID=480a6c07
DTITLE=Milan - Der Traum aus dem unordentlichen Zimmer 2 von 2
DYEAR=1998
DGENRE=Hörbuch
TTITLE0=Was bisher geschah
TTITLE1=Milan, der Falke
TTITLE2=Milan, der Fisch
TTITLE3=Milan, der Baum
TTITLE4=Milan, die Wolke
TTITLE5=Milan, der Stein
TTITLE6=Milan, der Waldkönig
EXTD=YEAR: 1998
EXTT0=
EXTT1=
EXTT2=
EXTT3=
EXTT4=
EXTT5=
EXTT6=
PLAYORDER=
